#!OML:ASF E:\acrobat2\Project_11_07_03\Capture day 1\Session 1\Acrobat.ASF
:FULLY-SPECIFIED
:DEGREES
708
root 1.03541 17.9357 28.2971 356.865 -84.4731 11.7737
lowerback -6.04139 0.701368 -0.800512
upperback -4.26738 0.849259 -2.08946
thorax -0.987476 0.365404 -1.65482
lowerneck -2.13787 -2.42516 -0.189081
upperneck 1.62322 -3.32621 3.63475
head 0.924705 -1.629 1.10305
rclavicle 8.32411e-015 2.74323e-014
rhumerus -16.965 -34.9465 1.14137
rradius 21.3155
rwrist 7.72752
rhand -15.3945 -50.3587
rfingers 7.12502
rthumb 10.7842 -440.062
lclavicle 8.32411e-015 2.74323e-014
lhumerus 1.40212 15.1369 0.687918
lradius 22.3369
lwrist 13.3963
lhand -14.7258 -7.67253
lfingers 7.12502
lthumb 11.4292 21.9959
rfemur 12.5453 28.7356 12.3694
rtibia -6.08307
rfoot -49.1465 -36.4787
rtoes 20.8718
lfemur 7.72888 -11.7415 -8.67949
ltibia -4.95783
lfoot -29.6335 4.90826
ltoes 44.3549
709
root 1.03679 17.9353 28.3019 356.096 -84.4537 12.5525
lowerback -6.03721 0.723625 -0.841077
upperback -4.26914 0.88042 -2.09936
thorax -0.991413 0.381637 -1.64073
lowerneck -1.99305 -2.457 -0.200049
upperneck 1.52902 -3.3625 3.58743
head 0.870605 -1.65013 1.09144
rclavicle 1.35919e-014 -1.47101e-014
rhumerus -16.988 -36.0208 1.39757
rradius 21.1176
rwrist 8.84943
rhand -15.242 -50.2683
rfingers 7.12502
rthumb 10.9313 -439.964
lclavicle 1.35919e-014 -1.47101e-014
lhumerus 1.43788 14.4965 0.636494
lradius 22.3452
lwrist 14.0116
lhand -14.9636 -7.78456
lfingers 7.12502
lthumb 11.1999 21.8965
rfemur 12.5093 28.5565 12.1858
rtibia -6.11039
rfoot -49.1798 -36.1803
rtoes 21.6448
lfemur 7.69823 -11.6218 -8.75497
ltibia -4.92335
lfoot -29.508 4.81659
ltoes 44.3379
710
root 1.03834 17.9356 28.3052 356.1 -84.4882 12.5553
lowerback -6.05637 0.708996 -0.823943
upperback -4.22299 0.863251 -2.08683
thorax -0.933399 0.373667 -1.63769
lowerneck -1.982 -2.43485 -0.154204
upperneck 1.43732 -3.32987 3.5402
head 0.83752 -1.63519 1.06985
rclavicle 7.40473e-015 6.36111e-015
rhumerus -16.8669 -36.7718 1.39418
rradius 20.9786
rwrist 9.5467
rhand -15.3037 -50.174
rfingers 7.12502
rthumb 10.8718 -439.873
lclavicle 7.40473e-015 6.36111e-015
lhumerus 1.32422 14.672 0.616976
lradius 22.4405
lwrist 13.8048
lhand -14.9577 -7.82225
lfingers 7.12502
lthumb 11.2055 21.8585
rfemur 12.4465 28.4649 12.1129
rtibia -6.09468
rfoot -49.1095 -36.1115
rtoes 21.7178
lfemur 7.70028 -11.5917 -8.74988
ltibia -4.9212
lfoot -29.5403 4.6529
ltoes 44.6525
711
root 1.04063 17.9347 28.3066 355.633 -84.5075 13.0317
lowerback -6.04179 0.664509 -0.901645
upperback -4.18833 0.809402 -2.05805
thorax -0.90844 0.349238 -1.56709
lowerneck -2.0042 -2.42006 -0.140188
upperneck 1.33845 -3.30548 3.46977
head 0.808187 -1.62438 1.04596
rclavicle -1.03617e-014 -1.78906e-014
rhumerus -16.6507 -36.7494 1.20344
rradius 20.9774
rwrist 9.48762
rhand -15.3495 -50.1591
rfingers 7.12502
rthumb 10.8277 -439.86
lclavicle -1.03617e-014 -1.78906e-014
lhumerus 1.08447 14.7505 0.534307
lradius 22.6003
lwrist 13.655
lhand -14.8397 -7.70801
lfingers 7.12502
lthumb 11.3194 21.9665
rfemur 12.4095 28.4252 12.0261
rtibia -6.07899
rfoot -49.0341 -36.1468
rtoes 21.5948
lfemur 7.68879 -11.4684 -8.78829
ltibia -4.9128
lfoot -29.4486 4.63265
ltoes 44.6637
712
root 1.04248 17.9334 28.309 354.285 -84.4714 14.3972
lowerback -6.02192 0.624484 -1.05972
upperback -4.18507 0.762706 -2.05313
thorax -0.91939 0.328947 -1.47592
lowerneck -1.99715 -2.43336 -0.150085
upperneck 1.3165 -3.32014 3.40035
head 0.799109 -1.63249 1.02593
rclavicle 1.28465e-014 -2.8625e-014
rhumerus -16.5008 -36.6203 1.09791
rradius 20.9922
rwrist 9.44644
rhand -15.35 -50.165
rfingers 7.12502
rthumb 10.8271 -439.866
lclavicle 1.28465e-014 -2.8625e-014
lhumerus 1.00442 14.4578 0.429755
lradius 22.4944
lwrist 13.7513
lhand -14.7539 -7.74937
lfingers 7.12502
lthumb 11.4021 21.9206
rfemur 12.3644 28.2616 11.7904
rtibia -6.0819
rfoot -48.7277 -36.0854
rtoes 21.4586
lfemur 7.6828 -11.6112 -8.98938
ltibia -4.93073
lfoot -29.5435 4.72151
ltoes 44.5108
